<?xml version="1.0" encoding="UTF-8"?>
<svg id="_레이어_2" data-name="레이어 2" xmlns="http://www.w3.org/2000/svg" viewBox="0 0 272.68 249.63">
  <defs>
    <style>
      .cls-1 {
        fill: #ff765f;
      }

      .cls-2 {
        fill: #e80000;
      }


      .cls-4 {
        fill: #11771f;
      }
    </style>
  </defs>
  <g id="Layer_1" data-name="Layer 1">
    <g>
      <path class="cls-2" d="M199.74,203.97c36.24-17.74,60.06-47.77,60.06-81.83s-24.53-64.93-61.66-82.57c-18.56-6.66-39.6-10.43-61.91-10.43-54.86,0-102.08,22.73-123.48,55.42-.54.8-1.06,1.61-1.57,2.42,0,0,0,0,0,.01C4,98.47,0,111.11,0,124.4c0,49.54,55.35,90.12,125.63,93.89,3.5.19,7.03.32,10.6.32.01,0,.03,0,.04,0,.01,0,.03,0,.04,0,2.16,0,4.3-.05,6.43-.11.48-.02.96-.04,1.44-.06,1.76-.07,3.5-.16,5.24-.28.41-.03.83-.06,1.24-.09,9.58-.7,18.87-2.07,27.75-4.06,1.52,8.17,1.48,22.72-12.93,35.63,0,0,5.48-.09,12.7-2.26-2.53.59-4.72.93-6.32,1.11,12.22-5.68,26.07-17.96,27.86-44.51Z"/>
      <path class="cls-1" d="M212.62,202.52c36.24-16.93,60.06-45.59,60.06-78.1,0-.05,0-.1,0-.15,0-.07,0-.13,0-.2,0-22.55-11.46-43.24-30.58-59.45-11.91-10.34-26.86-18.89-43.9-25.01,37.13,17.63,61.66,48.02,61.66,82.57s-23.82,64.09-60.06,81.83c-1.79,26.55-15.64,38.83-27.86,44.51,1.6-.18,3.79-.52,6.32-1.11,13.2-3.96,32.25-14.87,34.37-44.88Z"/>
      <path class="cls-4" d="M136.77,20.75h23.45c2.12,0,3.26.49,3.26,1.63,0,.98-.98,2.12-3.09,3.42-3.09,1.95-5.7,4.07-8.14,6.51-1.47,1.47-4.23,2.28-8.14,2.28h-7.33v6.89c0,9.93,3.75,14.82,9.12,15.47,4.07.49,9.12-1.79,13.84-6.19,1.79-1.63,2.77-1.14,3.26-.33.49.81.16,2.61-1.14,5.21-6.35,13.03-15.96,18.4-25.73,17.91-9.61-.49-19.05-7.82-19.05-22.15v-16.82h-14.49c-1.95,0-3.42-.65-3.42-1.79s2.12-2.28,3.91-3.42c1.47-1.14,4.4-3.09,6.68-5.37l.33-.33,1.14-.98c2.28-1.95,15.15-18.24,19.05-21.17,3.91-2.93,6.51-1.63,6.51,3.75v15.47Z"/>
      </g>
  </g>
</svg>