<svg xmlns="http://www.w3.org/2000/svg" width="390" height="844" viewBox="0 0 390 844" fill="none">
  <rect width="390" height="844" rx="48" fill="#1d1d1f"/>
  <rect x="10" y="10" width="370" height="824" rx="40" fill="#f5f5f7"/>
  <rect x="140" y="22" width="110" height="28" rx="14" fill="#1d1d1f"/>
  <text x="36" y="110" fill="#e11d2e" font-family="system-ui,sans-serif" font-size="15" font-weight="600">TOTT</text>
  <text x="36" y="158" fill="#1d1d1f" font-family="system-ui,sans-serif" font-size="32" font-weight="700">공지사항</text>
  <text x="36" y="188" fill="#86868b" font-family="system-ui,sans-serif" font-size="15">최신 업데이트를 한눈에</text>
  <rect x="28" y="220" width="334" height="88" rx="16" fill="#fff"/>
  <rect x="44" y="242" width="60" height="12" rx="6" fill="#e8e8ed"/>
  <rect x="44" y="264" width="220" height="16" rx="6" fill="#1d1d1f" opacity="0.85"/>
  <rect x="28" y="324" width="334" height="88" rx="16" fill="#fff"/>
  <rect x="44" y="346" width="48" height="12" rx="6" fill="#e8e8ed"/>
  <rect x="44" y="368" width="250" height="16" rx="6" fill="#1d1d1f" opacity="0.85"/>
  <rect x="28" y="428" width="334" height="88" rx="16" fill="#fff"/>
  <rect x="44" y="450" width="72" height="12" rx="6" fill="#e8e8ed"/>
  <rect x="44" y="472" width="190" height="16" rx="6" fill="#1d1d1f" opacity="0.85"/>
  <rect x="120" y="780" width="150" height="6" rx="3" fill="#1d1d1f" opacity="0.2"/>
</svg>
