<svg xmlns="http://www.w3.org/2000/svg" width="390" height="844" viewBox="0 0 390 844" fill="none">
  <rect width="390" height="844" rx="48" fill="#1d1d1f"/>
  <rect x="10" y="10" width="370" height="824" rx="40" fill="#0b1020"/>
  <rect x="140" y="22" width="110" height="28" rx="14" fill="#fff" opacity="0.15"/>
  <text x="36" y="110" fill="#ff6b7a" font-family="system-ui,sans-serif" font-size="14" font-weight="600">STAKING</text>
  <text x="36" y="160" fill="#fff" font-family="system-ui,sans-serif" font-size="30" font-weight="700">TOTT Pool</text>
  <text x="36" y="192" fill="#9aa0b4" font-family="system-ui,sans-serif" font-size="14">예상 수익률 APR</text>
  <text x="36" y="248" fill="#fff" font-family="system-ui,sans-serif" font-size="48" font-weight="700">12.4%</text>
  <rect x="28" y="290" width="334" height="140" rx="20" fill="#161b2e"/>
  <rect x="48" y="320" width="80" height="10" rx="5" fill="#3a415c"/>
  <rect x="48" y="348" width="200" height="22" rx="8" fill="#e11d2e" opacity="0.85"/>
  <rect x="48" y="390" width="140" height="10" rx="5" fill="#3a415c"/>
  <rect x="28" y="450" width="160" height="88" rx="18" fill="#161b2e"/>
  <rect x="202" y="450" width="160" height="88" rx="18" fill="#161b2e"/>
  <rect x="48" y="478" width="70" height="10" rx="5" fill="#3a415c"/>
  <rect x="48" y="502" width="100" height="14" rx="5" fill="#fff" opacity="0.8"/>
  <rect x="222" y="478" width="70" height="10" rx="5" fill="#3a415c"/>
  <rect x="222" y="502" width="90" height="14" rx="5" fill="#fff" opacity="0.8"/>
  <rect x="120" y="780" width="150" height="6" rx="3" fill="#fff" opacity="0.2"/>
</svg>
